<svg width="337" height="87" viewBox="0 0 337 87" fill="none" xmlns="http://www.w3.org/2000/svg">
<path d="M5.16477 70V17.6364H14.6506V62.0483H37.7131V70H5.16477ZM62.9233 70.767C58.9858 70.767 55.5852 69.9489 52.7216 68.3125C49.875 66.6591 47.6847 64.3239 46.1506 61.3068C44.6165 58.2727 43.8494 54.7017 43.8494 50.5938C43.8494 46.554 44.6165 43.0085 46.1506 39.9574C47.7017 36.8892 49.8665 34.5028 52.6449 32.7983C55.4233 31.0767 58.6875 30.2159 62.4375 30.2159C64.858 30.2159 67.142 30.608 69.2898 31.392C71.4545 32.1591 73.3636 33.3523 75.017 34.9716C76.6875 36.5909 78 38.6534 78.9545 41.1591C79.9091 43.6477 80.3864 46.6136 80.3864 50.0568V52.8949H48.196V46.6562H71.5142C71.4972 44.8835 71.1136 43.3068 70.3636 41.9261C69.6136 40.5284 68.5653 39.429 67.2188 38.6278C65.8892 37.8267 64.3381 37.4261 62.5653 37.4261C60.6733 37.4261 59.0114 37.8864 57.5795 38.8068C56.1477 39.7102 55.0313 40.9034 54.2301 42.3864C53.446 43.8523 53.0455 45.4631 53.0284 47.2188V52.6648C53.0284 54.9489 53.446 56.9091 54.2812 58.5455C55.1165 60.1648 56.2841 61.4091 57.7841 62.2784C59.2841 63.1307 61.0398 63.5568 63.0511 63.5568C64.3977 63.5568 65.6165 63.3693 66.7074 62.9943C67.7983 62.6023 68.7443 62.0312 69.5455 61.2812C70.3466 60.5312 70.9517 59.6023 71.3608 58.4943L80.0028 59.4659C79.4574 61.75 78.4176 63.7443 76.8835 65.4489C75.3665 67.1364 73.4233 68.4489 71.054 69.3864C68.6847 70.3068 65.9744 70.767 62.9233 70.767ZM99.5178 70.7926C97.0291 70.7926 94.7876 70.3494 92.7933 69.4631C90.8161 68.5597 89.2479 67.2301 88.0888 65.4744C86.9467 63.7187 86.3757 61.554 86.3757 58.9801C86.3757 56.7642 86.7848 54.9318 87.603 53.483C88.4212 52.0341 89.5376 50.875 90.9524 50.0057C92.3672 49.1364 93.9609 48.4801 95.7337 48.0369C97.5234 47.5767 99.3729 47.2443 101.282 47.0398C103.583 46.8011 105.45 46.5881 106.881 46.4006C108.313 46.196 109.353 45.8892 110.001 45.4801C110.665 45.054 110.998 44.3977 110.998 43.5114V43.358C110.998 41.4318 110.427 39.9403 109.285 38.8835C108.143 37.8267 106.498 37.2983 104.35 37.2983C102.083 37.2983 100.285 37.7926 98.9553 38.7812C97.6428 39.7699 96.7564 40.9375 96.2962 42.2841L87.6541 41.0568C88.3359 38.6705 89.4609 36.6761 91.0291 35.0739C92.5973 33.4545 94.5149 32.2443 96.782 31.4432C99.049 30.625 101.555 30.2159 104.299 30.2159C106.191 30.2159 108.075 30.4375 109.95 30.8807C111.825 31.3239 113.538 32.0568 115.089 33.0795C116.64 34.0852 117.884 35.4574 118.822 37.196C119.776 38.9347 120.254 41.108 120.254 43.7159V70H111.356V64.6051H111.049C110.487 65.696 109.694 66.7187 108.671 67.6733C107.665 68.6108 106.396 69.3693 104.862 69.9489C103.344 70.5114 101.563 70.7926 99.5178 70.7926ZM101.921 63.9915C103.779 63.9915 105.39 63.625 106.754 62.892C108.117 62.142 109.165 61.1534 109.898 59.9261C110.648 58.6989 111.023 57.3608 111.023 55.9119V51.2841C110.734 51.5227 110.239 51.7443 109.54 51.9489C108.859 52.1534 108.092 52.3324 107.239 52.4858C106.387 52.6392 105.543 52.7756 104.708 52.8949C103.873 53.0142 103.148 53.1165 102.535 53.2017C101.154 53.3892 99.9183 53.696 98.8274 54.1222C97.7365 54.5483 96.8757 55.1449 96.245 55.9119C95.6143 56.6619 95.299 57.6335 95.299 58.8267C95.299 60.5312 95.9212 61.8182 97.1655 62.6875C98.4098 63.5568 99.995 63.9915 101.921 63.9915ZM129.56 70V30.7273H138.535V37.2727H138.944C139.66 35.0057 140.887 33.2585 142.626 32.0312C144.381 30.7869 146.384 30.1648 148.634 30.1648C149.146 30.1648 149.717 30.1903 150.347 30.2415C150.995 30.2756 151.532 30.3352 151.958 30.4205V38.9347C151.566 38.7983 150.944 38.679 150.092 38.5767C149.256 38.4574 148.447 38.3977 147.663 38.3977C145.975 38.3977 144.458 38.7642 143.112 39.4972C141.782 40.2131 140.734 41.2102 139.967 42.4886C139.2 43.767 138.816 45.2415 138.816 46.9119V70H129.56ZM167.363 46.9886V70H158.107V30.7273H166.954V37.4006H167.414C168.317 35.2017 169.758 33.4545 171.735 32.1591C173.729 30.8636 176.192 30.2159 179.124 30.2159C181.835 30.2159 184.195 30.7955 186.207 31.9545C188.235 33.1136 189.803 34.7926 190.911 36.9915C192.036 39.1903 192.59 41.858 192.573 44.9943V70H183.317V46.4261C183.317 43.8011 182.636 41.7472 181.272 40.2642C179.925 38.7812 178.059 38.0398 175.673 38.0398C174.053 38.0398 172.613 38.3977 171.352 39.1136C170.107 39.8125 169.127 40.8267 168.411 42.1562C167.712 43.4858 167.363 45.0966 167.363 46.9886ZM210.087 70L198.991 30.7273H208.425L215.329 58.3409H215.687L222.744 30.7273H232.076L239.133 58.1875H239.516L246.317 30.7273H255.778L244.656 70H235.016L227.653 43.4602H227.116L219.752 70H210.087ZM278.501 70.767C274.564 70.767 271.163 69.9489 268.3 68.3125C265.453 66.6591 263.263 64.3239 261.729 61.3068C260.195 58.2727 259.428 54.7017 259.428 50.5938C259.428 46.554 260.195 43.0085 261.729 39.9574C263.28 36.8892 265.445 34.5028 268.223 32.7983C271.001 31.0767 274.266 30.2159 278.016 30.2159C280.436 30.2159 282.72 30.608 284.868 31.392C287.033 32.1591 288.942 33.3523 290.595 34.9716C292.266 36.5909 293.578 38.6534 294.533 41.1591C295.487 43.6477 295.964 46.6136 295.964 50.0568V52.8949H263.774V46.6562H287.092C287.075 44.8835 286.692 43.3068 285.942 41.9261C285.192 40.5284 284.143 39.429 282.797 38.6278C281.467 37.8267 279.916 37.4261 278.143 37.4261C276.251 37.4261 274.589 37.8864 273.158 38.8068C271.726 39.7102 270.609 40.9034 269.808 42.3864C269.024 43.8523 268.624 45.4631 268.607 47.2188V52.6648C268.607 54.9489 269.024 56.9091 269.859 58.5455C270.695 60.1648 271.862 61.4091 273.362 62.2784C274.862 63.1307 276.618 63.5568 278.629 63.5568C279.976 63.5568 281.195 63.3693 282.286 62.9943C283.376 62.6023 284.322 62.0312 285.124 61.2812C285.925 60.5312 286.53 59.6023 286.939 58.4943L295.581 59.4659C295.036 61.75 293.996 63.7443 292.462 65.4489C290.945 67.1364 289.001 68.4489 286.632 69.3864C284.263 70.3068 281.553 70.767 278.501 70.767ZM313.05 17.6364V70H303.795V17.6364H313.05ZM331.824 17.6364V70H322.568V17.6364H331.824Z" fill="#33FF00"/>
</svg>
